<svg xmlns="http://www.w3.org/2000/svg" height="1024" preserveAspectRatio="none" style="display: block;" version="1.1" viewBox="0 0 2048 2048" width="1024">
<defs>
	<linearGradient gradientUnits="userSpaceOnUse" id="Gradient1" x1="356.817" x2="341.582" y1="1026.49" y2="1020.78">
		<stop class="stop0" offset="0" stop-color="rgb(0,3,11)" stop-opacity="1"></stop>
		<stop class="stop1" offset="1" stop-color="rgb(6,14,36)" stop-opacity="1"></stop>
	</linearGradient>
</defs>
<path d="M 0 0 L 1676.64 0 L 1707.16 0 L 1759.61 0 L 1779.6 0 L 2048 0 L 2048 34.5691 L 2048 49.7306 L 2048 119.089 L 2048 147.6 L 2048 2048 L 0 2048 L 0 0 z" fill="rgb(52,66,73)" transform="translate(0,0)"></path>
<path d="M 1676.64 0 L 1707.16 0 L 1759.61 0 L 1779.6 0 L 2048 0 L 2048 34.5691 L 2048 49.7306 L 2048 119.089 L 2048 147.6 C 2016.43 175.938 1979.56 203.334 1946.02 229.538 L 1801.57 344.276 C 1751.36 384.649 1702.77 427.121 1651.35 466.207 C 1600.39 504.95 1570.28 537.672 1502.32 513.56 C 1490.77 526.38 1478.17 547.637 1470.87 565.303 C 1459.03 593.968 1456.49 635.954 1440.91 662.201 C 1437.78 667.487 1419.28 668.482 1412.92 669.158 C 1436.62 702.484 1458.74 736.426 1481.35 770.417 L 1586.51 931.694 L 1641 1015.27 C 1647.97 1026.15 1656.85 1039.48 1663.08 1050.5 C 1668.23 1059.62 1668.93 1073.93 1674.07 1085.17 C 1708.73 1161.73 1742.44 1238.72 1775.2 1316.11 C 1782.82 1334.4 1790.63 1352.6 1798.65 1370.72 C 1806.51 1388.28 1817.32 1409.29 1822.7 1427.9 C 1825.16 1436.44 1815.94 1440.36 1808.92 1442.15 C 1784.78 1448.28 1760.36 1453.91 1736.11 1459.95 C 1682.97 1472.98 1629.9 1486.29 1576.9 1499.89 L 871.158 1672.41 L 674.019 1719.96 C 651.946 1725.26 602.013 1739.16 581.884 1740.85 C 573.366 1734.48 569.583 1724.79 564.253 1715.93 C 545.452 1684.7 528.214 1652.62 510.115 1621.01 L 344.316 1329.14 L 277.331 1212.96 C 258.352 1180.08 235.057 1152.13 237.456 1112.53 C 239.16 1084.39 250.815 1064.52 262.91 1040.04 C 275.493 1014.42 288.433 988.971 301.727 963.709 L 348.927 872.652 C 363.293 844.288 376.245 816.538 391.636 788.59 C 408.31 758.313 419.561 735.191 451.653 718.333 C 470.687 708.334 501.46 700.924 522.529 695.379 C 555.658 686.641 588.864 678.197 622.143 670.05 L 958.466 586.767 L 1085.26 556.391 C 1103.19 552.008 1123.96 547.658 1141.43 542.512 C 1159.63 509.767 1175.47 470.093 1190.89 436.02 C 1195.92 424.9 1206.45 396.158 1212.71 387.817 C 1222.68 383.878 1234.43 385.035 1245.9 384.192 C 1289.4 380.993 1341.54 359.122 1365.67 321.199 C 1367.6 318.162 1370.08 308.176 1371.1 304.279 C 1375.05 289.29 1382.14 275.534 1393.5 264.812 C 1412.69 246.218 1432.77 228.227 1452.41 210.032 L 1545.32 123.382 C 1589.66 82.4444 1631.68 40.8696 1676.64 0 z" fill="rgb(11,20,35)" transform="translate(0,0)"></path>
<path d="M 1779.6 0 L 2048 0 L 2048 34.5691 C 2027.13 52.1578 2006.62 71.7492 1985.76 89.7918 C 1905.37 160.028 1823.93 229.049 1741.47 296.831 C 1703.63 327.438 1664.94 359.447 1624.73 386.823 C 1581.65 360.282 1534.72 297.507 1516.65 250.274 C 1532.48 231.93 1549.85 213.976 1567.27 197.141 C 1636.54 130.205 1706.77 62.971 1779.6 0 z" fill="rgb(199,164,91)" transform="translate(0,0)"></path>
<path d="M 2048 49.7306 L 2048 119.089 C 1994.78 165.606 1935.43 209.18 1880.34 254.052 L 1763.58 348.416 C 1736.79 370.117 1705.9 396.195 1678.17 415.773 C 1662.35 411.262 1649.37 403.074 1635.53 394.587 C 1693.79 351.732 1744.37 309.467 1799.94 263.636 C 1884.04 193.993 1966.75 122.677 2048 49.7306 z" fill="rgb(199,164,91)" transform="translate(0,0)"></path>
<path d="M 1707.16 0 L 1759.61 0 L 1626.77 123.667 C 1585.88 162.438 1550.25 198.179 1511 237.981 C 1506 223.132 1503.97 210.937 1501.36 195.631 C 1511.84 183.096 1537.93 160.568 1550.96 148.14 L 1648.88 55.7768 C 1667.59 38.196 1689.62 18.3901 1707.16 0 z" fill="rgb(199,164,91)" transform="translate(0,0)"></path>
<path d="M 1556.98 1057.68 C 1560.05 1059.22 1565.62 1068.16 1568.97 1070.96 C 1592.55 1090.66 1626.46 1118.69 1657.13 1096.8 C 1663.95 1111.89 1670.35 1129.4 1676.97 1144.92 L 1731.36 1271.83 C 1752.47 1321.49 1776.14 1372.91 1796.27 1422.82 L 1294.48 1546.79 C 1130.62 1587.85 966.528 1628.01 802.22 1667.27 C 751.203 1679.02 700.412 1692.29 649.375 1704.04 C 633.884 1707.61 618.242 1711.28 602.9 1715.42 C 606.778 1701.76 609.978 1682.33 612.744 1667.94 L 628.232 1587.61 C 645.81 1497.02 664.477 1399.09 679.12 1308.48 C 708.678 1299.23 726.467 1279.67 744.731 1256.17 C 782.49 1263.04 817.307 1253.23 854.236 1245.13 C 887.009 1238.05 919.683 1230.52 952.247 1222.53 C 1065.54 1194.74 1178.55 1165.83 1291.27 1135.8 C 1346.58 1121.78 1401.82 1107.44 1456.97 1092.79 C 1483.93 1085.61 1511.88 1078.44 1538.47 1069.93 C 1545.42 1067.71 1551.71 1062.64 1556.98 1057.68 z" fill="rgb(227,214,184)" transform="translate(0,0)"></path>
<path d="M 1602.5 1127.47 C 1603.16 1127.76 1603.88 1128.02 1604.35 1128.52 C 1609.98 1134.54 1617.05 1146.81 1621.06 1153.94 C 1651.26 1207.65 1700 1320.72 1707.67 1379.46 C 1701.63 1379.76 1692.93 1357.27 1690.45 1351.01 C 1667.15 1292.43 1645.14 1233.49 1620.56 1175.41 C 1616.18 1165.06 1603.41 1136.54 1602.5 1127.47 z" fill="rgb(11,20,35)" transform="translate(0,0)"></path>
<path d="M 1092.68 642.313 C 1094.69 644.437 1090.62 649.072 1089.05 652.596 C 1073.35 687.814 1039.01 727.409 1039.44 766.636 C 1039.57 778.717 1055.23 779.262 1065.03 775.533 C 1094.16 764.45 1121.99 749.27 1150.65 736.371 C 1197.24 715.692 1245.7 699.518 1295.38 688.07 C 1300.14 694.602 1307.48 707.49 1312.15 714.991 C 1321.92 730.519 1331.79 745.986 1341.76 761.391 L 1419.29 881.14 C 1432.13 901.137 1450.92 927.429 1459.85 949.043 C 1461.35 958.732 1458.87 969.78 1453.64 978.066 C 1439.59 1000.31 1402.32 1006.77 1378.25 1013.23 L 1295.73 1034.71 C 1211.63 1056.79 1127.38 1078.34 1043 1099.37 C 974.44 1115.69 906.292 1133.7 837.255 1148.04 C 827.907 1149.99 818.655 1152.11 809.092 1152.65 C 766.437 1155.04 747.073 1114.23 729.802 1082.82 L 695.136 1018.93 C 667.174 969.03 639.737 918.835 612.831 868.355 C 603.274 850.515 591.138 829.967 584.191 811.751 C 577.91 795.28 591.797 765.979 608.773 761.112 C 628.182 755.548 649.633 750.641 669.181 745.965 L 789.167 717.152 L 1026.83 658.634 C 1048.69 653.304 1070.8 647.291 1092.68 642.313 z" fill="rgb(227,214,184)" transform="translate(0,0)"></path>
<path d="M 773.826 793.239 C 789.873 792.349 856.837 790.877 868.181 795.628 C 873.772 797.969 878.198 803.451 880.216 809.078 C 881.298 812.092 881.386 815.187 879.813 818.076 C 869.006 837.915 813.383 825.635 793.653 830.709 C 790.498 836.303 792.141 872.327 792.357 880.876 C 802.803 879.948 813.269 879.27 823.747 878.844 C 833.26 878.51 859.454 877.027 864.815 885.622 C 890.272 926.438 812.407 917.155 791.893 917.07 L 791.994 951.25 C 791.952 954.421 791.258 966.792 795.868 967.116 C 815.269 968.479 835.106 966.377 854.665 967.207 C 865.343 967.661 876.652 968.729 880.591 980.723 C 882.052 985.056 881.683 989.797 879.571 993.853 C 877.466 997.908 873.558 1000.95 869.194 1002.25 C 856.366 1006.06 795.748 1006.38 780.631 1004.3 C 774.878 1003.51 769.109 1001.79 764.032 998.938 C 758.254 995.693 756.455 991.158 754.832 984.909 C 750.321 967.539 748.563 816.346 757.027 802.892 C 760.798 796.897 767.282 794.722 773.826 793.239 z" fill="rgb(11,20,35)" transform="translate(0,0)"></path>
<path d="M 778.081 805.304 C 792.58 804.286 858.826 802.93 867.258 809.121 C 868.504 812.065 868.469 810.609 867.319 813.63 C 856.443 822.188 805.046 815.788 789.162 818.395 C 787.057 818.74 783.709 819.445 783.009 821.847 C 778.269 838.11 780.303 862.704 781.93 879.752 C 782.235 882.945 784.623 890.337 786.273 890.674 C 795.251 894.265 853.405 886.478 857.296 893.56 C 870.129 916.913 793.603 897.028 785.713 910.153 C 777.512 923.797 780.887 915.201 780.115 927.134 C 780.061 938.881 778.988 952.627 781.28 964.142 C 782.356 969.549 784.604 974.707 789.71 977.375 C 802.574 984.095 859.372 974.216 867.903 982.107 C 869.856 983.913 869.68 985.524 869.856 987.962 C 868.501 989.913 868.016 990.573 865.715 991.489 C 859.606 993.922 795.35 993.832 785.426 993.084 C 781.555 992.793 777.572 992.057 773.98 990.547 C 770.387 989.035 767.656 986.966 766.302 983.172 C 762.636 972.892 765.151 953.271 764.87 941.96 C 764.394 922.771 760.377 819.655 766.43 809.389 C 768.367 806.103 774.624 805.838 778.081 805.304 z" fill="rgb(199,164,91)" transform="translate(0,0)"></path>
<path d="M 1001.73 795.258 C 1024.42 792.233 1052.63 799.193 1070.51 813.475 C 1076.74 818.445 1075.99 834.039 1069.93 838.545 C 1057.05 848.102 1039.82 835.713 1026.86 832.385 C 1013.88 828.824 1002.1 828.222 992.369 838.64 C 976.761 855.754 998.434 868.635 1012.74 874.774 C 1036.67 885.041 1066 893.674 1077.31 919.601 C 1087.37 942.656 1085.31 967.877 1067.31 986.323 C 1050.91 1003.12 1030.47 1007.78 1007.74 1008.12 C 990.732 1008.17 973.955 1004.17 958.795 996.457 C 945.567 989.641 929.403 980.407 940.592 963.636 C 948.238 952.442 957.012 955.757 967.204 961.33 C 985.316 971.509 1011.83 976.577 1031.18 966.672 C 1050 957.04 1047.25 939.041 1030.65 928.878 C 1005.79 913.646 974.472 910.127 955.983 886.152 C 933.027 856.385 948.461 813.116 982.474 800.341 C 989.656 797.603 994.076 796.63 1001.73 795.258 z" fill="rgb(11,20,35)" transform="translate(0,0)"></path>
<path d="M 1003.25 806.329 C 1021.75 804.773 1042.36 808.758 1058.02 819.075 C 1062.45 821.991 1062.29 826.039 1059.07 829.741 C 1053.15 831.83 1037.9 823.632 1030.48 821.349 C 1025.16 819.72 1019.66 818.781 1014.1 818.555 C 995.017 817.836 973.073 832.431 975.046 852.07 C 978.534 886.788 1036.74 890.077 1057.41 912.266 C 1066.28 921.792 1071.06 930.356 1071.25 943.601 C 1071.84 984.773 1036.93 997.124 1002.22 996.882 C 988.551 995.417 955.445 987.622 948.854 975.087 C 948.797 968.016 952.221 966.858 957.904 969.894 C 962.266 972.225 967.235 974.236 971.73 976.413 C 999.903 991.131 1064.69 985.659 1054.07 940.743 C 1044.55 900.475 964.125 907.631 957.573 861.901 C 953.169 831.162 974.088 810.471 1003.25 806.329 z" fill="rgb(199,164,91)" transform="translate(0,0)"></path>
<path d="M 1224.74 799.381 C 1243.95 796.347 1289 805.559 1299.24 826.462 C 1301.37 830.823 1300.11 839.308 1297.42 843.623 C 1286.33 861.367 1271.44 845.256 1258.3 840.25 C 1231.18 830.11 1202.09 837.092 1187.67 864.109 C 1176.76 884.248 1174.41 907.93 1181.15 929.82 C 1192.83 966.47 1229.9 979.556 1264.02 964.374 C 1271.02 961.259 1276.22 957.711 1283.63 955.29 C 1286.86 956.249 1289.56 957.316 1292.37 959.277 C 1296.84 962.41 1299.89 967.17 1300.88 972.532 C 1304.42 992.726 1269.33 1004.45 1253.86 1006.49 C 1226.53 1010.67 1195.58 1004.61 1173.25 987.567 C 1129.2 953.947 1126.77 875.083 1159.99 833.23 C 1177.71 810.896 1197.2 802.856 1224.74 799.381 z" fill="rgb(11,20,35)" transform="translate(0,0)"></path>
<path d="M 1224.54 810.371 C 1232.23 809.317 1240.75 810.167 1248.39 811.308 C 1257.57 812.679 1294.99 824.716 1291.73 836.729 C 1290.87 837.676 1286.7 841.597 1285.47 841.03 C 1264.24 831.264 1249.91 822.508 1225.61 824.583 C 1209.87 826.084 1195.37 833.798 1185.32 846.019 C 1155.09 882.379 1158.62 962.01 1210.44 977.842 C 1225.34 982.395 1236.6 982.452 1251.91 980.726 C 1264.85 977.977 1274.08 970.142 1286.31 968.885 C 1288.23 968.687 1289.76 971.115 1290.72 972.605 C 1290.64 979.876 1279.31 986.611 1273.25 988.835 C 1172.31 1025.91 1115.19 918.236 1170.99 838.941 C 1183.66 820.945 1203.43 812.883 1224.54 810.371 z" fill="rgb(199,164,91)" transform="translate(0,0)"></path>
<path d="M 393.41 830.714 C 397.821 853.974 404.114 868.321 428.767 874.795 C 443.466 901.695 459.048 936.97 473.18 965.166 C 513.328 1046.87 555.388 1127.63 599.323 1207.36 C 616.708 1238.24 638.321 1277.35 658.638 1305.73 C 655.723 1317.26 652.978 1336.06 650.717 1348.25 L 633.849 1440.13 L 583.787 1706.26 C 575.379 1693.07 567.899 1681.06 560.188 1667.47 C 550.232 1650.82 540.817 1632.9 531.216 1615.94 L 472.131 1511.48 L 355.815 1306.88 L 292.673 1197.35 C 251.201 1125.03 245.191 1122.23 283.416 1045.21 C 297.07 1017.84 311.063 990.651 325.391 963.633 C 348.261 919.745 370.133 873.782 393.41 830.714 z" fill="rgb(227,214,184)" transform="translate(0,0)"></path>
<path d="M 398.696 910.995 L 399.051 911.381 C 399.613 917.849 370.632 979.914 365.974 990.884 C 359.763 1005.32 353.921 1019.91 348.453 1034.65 C 341.563 1053.24 335.391 1072.09 329.953 1091.16 C 326.254 1104.4 320.556 1128.2 315.518 1140.39 C 314.54 1139.52 313.651 1138.45 313.685 1137.06 C 315.342 1067.78 357.569 963.642 398.696 910.995 z" fill="url(#Gradient1)" transform="translate(0,0)"></path>
<path d="M 1111.38 603.137 L 1112.27 603.197 L 1112.87 604.415 C 1110.93 610.226 1107.06 617.371 1104.24 623.002 C 1081.8 626.562 1046.6 636.667 1023.14 642.329 C 961.844 657.02 900.662 672.169 839.596 687.775 L 675.557 728.114 C 633.978 738.444 578.511 740.818 568.438 788.102 C 562.246 817.17 577.89 838.103 590.997 862.138 L 619.391 914.747 L 676.275 1019.03 C 695.007 1053.75 713.48 1087.8 733.69 1121.77 C 747.108 1144.33 766.622 1162.01 793.024 1167.84 C 800.55 1169.54 808.327 1169.82 815.955 1168.66 C 833.494 1166.15 854.511 1161.26 871.982 1157.38 C 903.922 1150.24 935.788 1142.77 967.574 1134.97 C 1049.5 1115.43 1131.21 1095.03 1212.7 1073.77 L 1347.5 1038.36 C 1375.97 1030.91 1405.18 1023.55 1433.22 1014.55 C 1439.63 1012.5 1448.7 1006.16 1454.63 1002.29 C 1464.11 1010.41 1473.13 1020.27 1483.06 1028.55 C 1496.33 1039.61 1508.23 1047.21 1522.66 1056.4 C 1505.39 1061.49 1488.03 1066.25 1470.57 1070.67 C 1438.78 1080.56 1400.6 1089.1 1367.95 1097.65 C 1297.35 1116.46 1226.65 1134.88 1155.85 1152.91 C 1070.45 1175.85 984.649 1197.21 898.474 1217 C 866.01 1224.38 815.938 1236.87 783.912 1241.07 C 770.978 1242.83 757.822 1241.97 745.228 1238.54 L 611.146 980.558 C 590 941.006 569.163 901.289 548.634 861.413 C 539.145 843.204 522.027 814.939 518.426 795.623 C 514.778 776.055 523.901 753.632 542.528 744.881 C 563.904 734.838 592.574 729.372 616.105 723.5 C 659.197 712.34 702.43 701.728 745.792 691.667 L 1111.38 603.137 z" fill="rgb(227,214,184)" transform="translate(0,0)"></path>
<path d="M 509.892 823.716 C 516.173 829.968 554.923 908.047 562.9 923.243 C 599.577 992.09 635.694 1061.23 671.246 1130.67 C 689.367 1165.54 713.139 1209.06 729.289 1244.35 C 712.306 1261.34 699.72 1285.77 670.321 1292.41 C 661.619 1279.88 651.989 1262.66 644.078 1249.27 C 624.22 1215.63 605.042 1181.6 586.555 1147.2 C 553.44 1086.38 521.477 1024.94 490.683 962.918 C 476.667 934.57 460.637 903.705 448.292 874.719 C 480.401 866.111 492.204 850.535 509.892 823.716 z" fill="rgb(227,214,184)" transform="translate(0,0)"></path>
<path d="M 1418.81 446.714 C 1424.98 451.383 1434.55 465.069 1440.97 471.139 C 1455.1 484.501 1469.89 493.833 1485.98 504.486 C 1477.74 515.578 1467.16 528.988 1461.28 541.235 C 1445.14 574.861 1440.11 612.529 1428.06 648.142 C 1317.61 658.907 1234.22 677.863 1132.32 725.347 C 1120.59 730.273 1104.71 738.423 1093.33 744.395 C 1097.98 739.837 1102.83 735.673 1107.7 731.369 C 1161.41 683.856 1214.79 635.772 1267.18 586.803 C 1276.79 577.827 1287.46 567.56 1297.95 559.737 C 1299.79 560.744 1301.67 561.705 1303.56 562.617 C 1341.27 580.528 1382.36 546.148 1363.68 502.053 C 1381.77 483.321 1400.15 464.873 1418.81 446.714 z" fill="rgb(227,214,184)" transform="translate(0,0)"></path>
<path d="M 1442.28 503.869 C 1451.63 505.251 1456.6 510.075 1454.87 519.809 C 1449.48 518.163 1444.53 511.723 1441.52 506.955 L 1442.28 503.869 z" fill="rgb(11,20,35)" transform="translate(0,0)"></path>
<path d="M 1440.43 488.706 C 1446.44 489.58 1452.77 494.5 1453.49 500.762 C 1447.02 503.016 1440.45 494.361 1440.43 488.706 z" fill="rgb(11,20,35)" transform="translate(0,0)"></path>
<path d="M 1368.92 350.848 C 1370.25 352.235 1375.58 377.525 1377.26 382.058 C 1383.8 399.687 1393.01 413.371 1403.92 428.362 C 1383.93 446.668 1364.23 464.492 1344.96 483.586 C 1343.35 482.436 1341.71 481.331 1340.04 480.274 C 1310.7 461.928 1276.44 479.869 1273.15 514.271 C 1272.33 522.909 1274.67 530.684 1276.99 538.909 C 1266.19 546.789 1242.63 569.041 1230.81 579.243 C 1183.18 620.502 1136.6 662.945 1091.09 706.532 C 1082.33 714.745 1073.87 723.264 1065.71 732.074 C 1072.59 716.145 1092.2 683.074 1101.19 665.869 C 1124.53 620.793 1147.38 575.463 1169.74 529.887 C 1190.59 487.6 1210.96 449.222 1224.99 404.061 C 1275.71 407.447 1332.96 387.049 1368.92 350.848 z" fill="rgb(227,214,184)" transform="translate(0,0)"></path>
<path d="M 1358.79 370.414 C 1360.31 370.715 1361.02 371.054 1362.47 371.582 C 1366.98 377.185 1367.69 380.652 1369.8 387.649 C 1360.67 386.841 1358.86 378.157 1358.79 370.414 z" fill="rgb(11,20,35)" transform="translate(0,0)"></path>
<path d="M 1129.85 566.319 L 1130.62 567.461 C 1128.93 572.338 1127.2 577.204 1125.45 582.058 C 1110.36 587.167 1090.86 591.512 1075.21 595.294 L 976.394 618.403 L 676.513 692.127 L 595.051 712.299 C 570.74 718.423 541.594 723.417 522.187 740.246 C 510.788 750.13 502.548 766.323 502.026 781.333 C 501.799 787.894 502.472 795.888 501.104 802.465 C 492.98 826.499 471.7 855.25 445.104 859.492 C 434.869 861.125 427.045 857.319 419.752 851.687 C 414.938 846.758 411.778 840.575 410.221 833.82 C 401.204 794.456 429.785 746.822 466.737 732.462 C 491.845 722.705 524.199 715.307 550.825 708.409 C 602.858 694.743 655.018 681.569 707.3 668.888 C 847.063 634.739 989.579 597.514 1129.85 566.319 z" fill="rgb(227,214,184)" transform="translate(0,0)"></path>
<path d="M 1392.33 670.527 L 1393.5 670.549 C 1399.4 678.222 1408.38 693.205 1414.22 701.988 C 1430.6 726.388 1446.67 750.992 1462.44 775.794 L 1578.32 956.689 L 1625.66 1029.53 C 1630.13 1036.32 1647.06 1058.68 1648.33 1064.66 C 1654.92 1095.88 1627.67 1089.29 1612.91 1081.92 C 1592.98 1070.34 1580.69 1058.95 1565.45 1042.1 C 1566.68 1037.56 1567.6 1032.94 1568.21 1028.27 C 1569.5 1018.92 1567.99 1007.69 1563.49 999.44 C 1553.26 980.683 1539.78 961.381 1528 943.439 L 1469.42 853.586 L 1390.67 733.963 C 1378.03 715.074 1364.85 694.357 1351.12 676.448 C 1365 673.414 1378.26 671.879 1392.33 670.527 z" fill="rgb(227,214,184)" transform="translate(0,0)"></path>
<path d="M 1478.71 215.76 C 1480.47 217.516 1482.46 229.215 1483.23 232.257 C 1502.22 307.107 1556.49 378.939 1623.58 417.181 C 1635.16 423.785 1647.17 428.226 1659.29 432.807 C 1645.38 443.794 1631.39 454.667 1617.3 465.426 L 1610.81 469.854 C 1521.59 437.491 1450.17 345.622 1440.67 251.178 C 1453.21 239.134 1466.22 228.111 1478.71 215.76 z" fill="rgb(199,164,91)" transform="translate(0,0)"></path>
<path d="M 1420.87 269.063 C 1421.73 270.67 1426.07 293.029 1426.96 297.072 C 1442.97 369.379 1518.87 460.783 1589.95 485.273 C 1577.4 492.652 1571.21 495.247 1557.15 499.116 C 1511.64 506.893 1474.53 477.091 1444.54 445.901 C 1415.45 415.645 1387.85 372.432 1388.79 328.83 C 1389.46 297.801 1399.61 288.991 1420.87 269.063 z" fill="rgb(199,164,91)" transform="translate(0,0)"></path>
<path d="M 1334.18 680.341 L 1335.42 680.823 C 1340.91 687.03 1352.18 705.145 1357.49 713.048 L 1409.17 791.064 L 1490.19 915.606 C 1507.23 941.493 1524.78 967.027 1541.36 993.22 C 1554.02 1013.22 1556.38 1024.44 1544.43 1045.77 C 1536.89 1043.58 1533.92 1042.44 1526.78 1039.14 C 1501.83 1026.29 1485.01 1009.81 1466.96 989.199 C 1487.85 953.33 1473.94 934.453 1453.33 903.771 C 1443.61 889.307 1433.33 873.813 1423.86 859.135 C 1386.87 800.549 1349.4 742.275 1311.44 684.318 C 1319.02 683.032 1326.61 681.706 1334.18 680.341 z" fill="rgb(227,214,184)" transform="translate(0,0)"></path>
<path d="M 1313.75 489.115 C 1342.08 487.429 1365.83 536.47 1328.51 550.306 C 1296.77 554.395 1276.64 498.966 1313.75 489.115 z" fill="rgb(199,164,91)" transform="translate(0,0)"></path>
<metadata><recraft-signature>{"signed_by": "recraft", "signature_b64": "mLduBKd+gBrm+cILN6K3BYAm0+z6QZarWSIY4+AG/pBcR8ky9IbkbEFvlgJkQ2DQ+peWhRyoHORs552tJxfUDQ==", "signing_algo": "Ed25519", "generation_timestamp": 1784173910, "identifier": "cb8bfffb-900c-445a-9a9b-d5529c8771f0"}</recraft-signature></metadata></svg>